<?xml version="1.0" encoding="utf-8"?>
<!-- Generator: Adobe Illustrator 26.1.0, SVG Export Plug-In . SVG Version: 6.00 Build 0)  -->
<svg version="1.1" id="Layer_1" xmlns="http://www.w3.org/2000/svg" xmlns:xlink="http://www.w3.org/1999/xlink" x="0px" y="0px"
	 viewBox="0 0 866.5 316" style="enable-background:new 0 0 866.5 316;" xml:space="preserve">
<style type="text/css">
	.st0{fill:#FFFFFF;}
	.st1{fill:#00A251;}
</style>
<g>
	<path class="st0" d="M709.7,314.8H156.8C70.2,314.8,0,244.6,0,158v0C0,71.4,70.2,1.2,156.8,1.2h552.8
		c86.6,0,156.8,70.2,156.8,156.8v0C866.5,244.6,796.3,314.8,709.7,314.8z"/>
	<g>
		<g>
			<path d="M245.5,267.6c0.1,0,0.2-0.1,0.2-0.1c0.1-0.1,0.2-0.1,0.3-0.1c16.9,0.2,37.6-2.4,45.7-19.8c7.8-16.7-6-34.5-23.4-34.8
				c-3.1-0.1-6.4,0.5-9.1-0.9c-5.3-2.6-6.1-10.8-1.2-14.2c1.5-1.1,3.8-1.7,6.7-1.7c16.9-0.4,29.8,5.8,38.7,18.7
				c8,11.6,9.7,26.2,4,39.1c-9.9,22.4-29.5,28.1-52.6,29.9c-6.1,0.5-19.7,0.5-40.9,0.2c-0.3,0-0.4-0.1-0.3-0.4
				c5.8-15.5,11.4-34.1,4-50c-0.2-0.5-1-0.3-1,0.3c1.5,19.1-7.1,33.9-12.6,49.8c-0.1,0.3-0.3,0.4-0.6,0.4h-21c-1.1,0-2.1-1-2-2.1
				c0.5-11.6,4.2-22.6,8.1-33.4c1.8-5.1,2.2-10.1,1.2-15.2c-0.1-0.4-0.7-0.5-0.8-0.1c-1.3,3.6-2.9,6.9-4.7,10.2
				c-6.6,11.6-12.4,22.2-16.4,34.5c-0.1,0.3-0.1,0.3-0.2,0c-2-12.6-9.5-25-15.1-36.4c-1.2-2.5-2-5.3-2.5-8.5c0-0.3-0.2-0.4-0.5-0.3
				c-0.1,0-0.2,0.1-0.3,0.1s-0.1,0.1-0.1,0.2c-0.4,12.3,3.8,24.8,7.4,38.2c1,3.7,1.5,7.8,1.5,12.2c0,0.3-0.2,0.5-0.5,0.5h-24.5
				c-0.4,0-0.7-0.2-0.8-0.6c-4-21.3-8.2-45-9.6-67.3c-1.1-17.5,3.4-33.5,13.5-47.8c0.2-0.3,0.1-0.5-0.1-0.7
				c-7.3-5-15.7-10.9-20.6-18.4c-7.5-11.6-9.3-29.1-9.1-42.9c0.3-24.2,4.4-52,15.5-73.8c0.2-0.4,0.7-0.6,1.2-0.5
				c17.3,5.8,31.7,15.8,43.2,29.8c0.3,0.3,0.2,0.5-0.2,0.5c-5.7,0.2-11.3,1.2-16.7,3c-0.4,0.1-0.6,0-0.8-0.3
				c-4.3-6.1-9.9-11-16.5-14.5c-0.2-0.1-0.5,0-0.6,0.2c-4.5,11.3-6.2,23-5,35.2c0,0.3,0.4,0.5,0.7,0.3c29.2-21.2,69.9-19.6,99.8-1.1
				c0.3,0.2,0.6,0.2,0.9,0.1c18.4-7.9,37.5-9.9,57.2-5.9c0.8,0.2,1.2,0.6,1.1,1.5c-0.9,24.4-7.2,47.2-18.9,68.5
				c-9.4,17.1-24.1,32.7-44.9,32.8c-0.3,0-0.5,0.2-0.4,0.5l6.8,24.2c0.1,0.3,0.2,0.5,0.4,0.6c18.8,13.8,22.9,38.5,16.3,59.8
				C245,267.7,245.1,267.8,245.5,267.6 M145.5,95.5c-1,1.2-0.7,1.6,0.8,1.3c6-1.2,11.7-0.5,17.3,1.9c0.3,0.1,0.7-0.1,0.6-0.5
				C162.4,89.1,150.9,89.1,145.5,95.5 M256.8,127.9c7.2-10.6,11.3-22.3,12.5-35.1c0-0.4-0.2-0.7-0.6-0.7c-9.9-0.3-18.9,2.2-27.1,7.5
				c-0.4,0.2-0.4,0.6-0.1,0.9c6.8,8.1,11.7,17.2,14.7,27.3C256.2,128.1,256.6,128.2,256.8,127.9 M183.9,110.4c2.4-2,5-3.6,7.9-4.8
				c0.4-0.2,0.6-0.8,0.2-1.1c-3.4-3.5-7.5-4.6-12.4-3.4c-0.3,0.1-0.4,0.4-0.3,0.7c1.8,2.5,3,5.3,3.6,8.4
				C183.1,110.7,183.4,110.8,183.9,110.4 M214.1,113.5c-0.3,0.3-0.1,0.9,0.3,0.9c6.1,1,11.4,3.6,15.8,7.8c0.4,0.4,1,0.1,1-0.4
				C230.6,113.6,220.7,106.7,214.1,113.5 M170.1,154c5.2,4.1,10.4,0,13.6-4.4c4.3-5.9,8.6-11.9,12.9-18c0.3-0.4,0.2-0.6-0.3-0.6
				c-6.2-0.2-10.6-3.1-13-8.7c-0.1-0.3-0.2-0.6-0.2-0.9l0-1.2c0-0.7-0.3-0.8-0.8-0.3c-5.3,4.7-10.5,4.2-17.1,2.7
				c-0.4-0.1-0.6,0.1-0.5,0.5c0.6,3.7,1.2,7.2,1.1,11C165.7,140,165,149.9,170.1,154L170.1,154z"/>
		</g>
		<g>
			<path class="st1" d="M378.2,208.5c-6.3,0-12.4-0.8-18.3-2.4c-5.9-1.6-10.6-3.6-14.3-6.1l7.2-16.1c3.5,2.2,7.5,4,12,5.5
				s9,2.2,13.5,2.2c3,0,5.5-0.3,7.3-0.8c1.8-0.6,3.2-1.3,4-2.2c0.8-0.9,1.3-2,1.3-3.3c0-1.8-0.8-3.2-2.4-4.2c-1.6-1-3.7-1.9-6.3-2.5
				c-2.6-0.7-5.4-1.3-8.6-2c-3.1-0.7-6.3-1.5-9.4-2.5c-3.1-1-6-2.4-8.6-4c-2.6-1.7-4.7-3.8-6.3-6.5c-1.6-2.7-2.4-6.1-2.4-10.2
				c0-4.6,1.3-8.8,3.8-12.6c2.5-3.8,6.4-6.8,11.4-9.1c5.1-2.3,11.4-3.4,19-3.4c5.1,0,10.1,0.6,15,1.7c4.9,1.1,9.3,2.8,13.1,5
				l-6.7,16.2c-3.7-2-7.3-3.5-10.9-4.5c-3.6-1-7.1-1.5-10.5-1.5c-3,0-5.5,0.3-7.3,0.9c-1.8,0.6-3.2,1.5-4,2.5
				c-0.8,1-1.2,2.2-1.2,3.5c0,1.7,0.8,3,2.4,4c1.6,1,3.7,1.8,6.3,2.4c2.6,0.6,5.5,1.3,8.6,1.9c3.1,0.7,6.3,1.5,9.4,2.5
				c3.1,1,6,2.3,8.6,4c2.6,1.7,4.7,3.8,6.2,6.5c1.6,2.7,2.4,6.1,2.4,10.1c0,4.5-1.3,8.6-3.8,12.4c-2.5,3.8-6.3,6.8-11.4,9.1
				C392.2,207.4,385.8,208.5,378.2,208.5z"/>
			<path class="st1" d="M494.2,208.5c-6.1,0-11.8-1-17-2.9c-5.2-2-9.7-4.7-13.5-8.3c-3.8-3.6-6.8-7.9-8.9-12.8
				c-2.1-4.9-3.2-10.3-3.2-16.2c0-5.9,1.1-11.3,3.2-16.2c2.1-4.9,5.1-9.2,8.9-12.8c3.8-3.6,8.3-6.4,13.5-8.3c5.2-2,10.8-2.9,17-2.9
				c7.1,0,13.5,1.3,19.2,3.8c5.6,2.5,10.3,6.1,14.1,10.8l-13.9,12.6c-2.5-2.9-5.2-5.2-8.2-6.7c-3-1.5-6.3-2.3-10-2.3
				c-3.2,0-6.1,0.5-8.7,1.5c-2.7,1-4.9,2.5-6.8,4.5c-1.9,2-3.4,4.3-4.4,7c-1.1,2.7-1.6,5.7-1.6,9.1c0,3.3,0.5,6.3,1.6,9.1
				c1.1,2.7,2.5,5.1,4.4,7c1.9,2,4.1,3.4,6.8,4.5c2.7,1,5.6,1.5,8.7,1.5c3.7,0,7-0.8,10-2.3c3-1.5,5.7-3.8,8.2-6.7l13.9,12.6
				c-3.8,4.6-8.5,8.2-14.1,10.8S501.4,208.5,494.2,208.5z"/>
			<path class="st1" d="M559.8,207l34.2-77.4h21.6l34.3,77.4H627l-26.7-66.6h8.6L582.1,207H559.8z M578.4,191.9l5.6-16.1h37.8
				l5.6,16.1H578.4z"/>
			<path class="st1" d="M689.1,207v-77.4h35.4c7.1,0,13.2,1.1,18.3,3.4c5.1,2.3,9.1,5.6,11.9,9.9c2.8,4.3,4.2,9.4,4.2,15.3
				c0,5.8-1.4,10.9-4.2,15.1c-2.8,4.2-6.8,7.5-11.9,9.7c-5.1,2.2-11.2,3.4-18.3,3.4h-23.2l9.7-9.2V207H689.1z M710.9,179.6
				l-9.7-10.1h21.9c4.6,0,8-1,10.2-3c2.2-2,3.4-4.8,3.4-8.3c0-3.6-1.1-6.4-3.4-8.4c-2.2-2-5.7-3-10.2-3h-21.9l9.7-10.1V179.6z
				 M736.9,207l-19.2-28.2H741l19.3,28.2H736.9z"/>
		</g>
	</g>
</g>
</svg>
